<svg xmlns="http://www.w3.org/2000/svg" version="1.1" xmlns:xlink="http://www.w3.org/1999/xlink" xmlns:svgjs="http://svgjs.dev/svgjs" width="1500" height="318" viewBox="0 0 1500 318"><g transform="matrix(1,0,0,1,11.711626131158255,11.87756575260505)"><svg viewBox="0 0 396 84" data-background-color="#ffffff" preserveAspectRatio="xMidYMid meet" height="318" width="1500" xmlns="http://www.w3.org/2000/svg" xmlns:xlink="http://www.w3.org/1999/xlink"><g id="tight-bounds" transform="matrix(1,0,0,1,0.2400000000000091,0.21986375088414434)"><svg viewBox="0 0 395.52 83.56027249823168" height="83.56027249823168" width="395.52"><g><svg viewBox="0 0 641.5010992534561 135.5279294638298" height="83.56027249823168" width="395.52"><g><rect width="8.843739901498825" height="98.55685174468084" x="213.98620777735303" y="18.485538859574476" fill="#9495c2" opacity="1" stroke-width="0" stroke="transparent" fill-opacity="1" class="rect-yte-0" data-fill-palette-color="primary" rx="1%" id="yte-0" data-palette-color="#9495c2"></rect></g><g transform="matrix(1,0,0,1,245.9810992534561,18.730705157446813)"><svg viewBox="0 0 395.52 98.06651914893617" height="98.06651914893617" width="395.52"><g id="textblocktransform"><svg viewBox="0 0 395.52 98.06651914893617" height="98.06651914893617" width="395.52" id="textblock"><g><svg viewBox="0 0 395.52 98.06651914893617" height="98.06651914893617" width="395.52"><g transform="matrix(1,0,0,1,0,0)"><svg width="395.52" viewBox="2.66 -33.15 172.11 42.67" height="98.06651914893617" data-palette-color="#9495c2"><g class="wordmark-text-0" data-fill-palette-color="primary" id="text-0"><path d="M5.59-6.79L5.59-6.79Q5.59-2.25 10.86-2.25L10.86-2.25Q12.43-2.25 14.05-2.71 15.67-3.17 16.72-3.86L16.72-3.86 16.72-11.55 15.36-11.55Q14.18-11.55 13.21-11.49 12.23-11.43 11.04-11.28 9.84-11.13 8.94-10.79 8.03-10.45 7.24-9.95 6.45-9.45 6.02-8.64 5.59-7.84 5.59-6.79ZM4.66-20.58L4.05-23Q8.37-24.41 11.57-24.41L11.57-24.41Q13.38-24.41 14.82-23.91 16.26-23.41 17.4-22.35 18.53-21.29 19.15-19.45 19.78-17.6 19.78-15.06L19.78-15.06 19.78 0 17.53 0 17.04-1.61Q16.16-0.9 14.21-0.33 12.26 0.24 10.38 0.24L10.38 0.24Q6.86 0.24 4.76-1.59 2.66-3.42 2.66-6.93L2.66-6.93Q2.66-8.06 3.02-9.02 3.37-9.99 4.24-10.89 5.1-11.79 6.43-12.44 7.76-13.09 9.84-13.46 11.91-13.84 14.58-13.84L14.58-13.84 16.72-13.84 16.72-14.62Q16.7-18.63 15.32-20.24 13.94-21.85 11.43-21.85L11.43-21.85Q11.06-21.85 10.63-21.81 10.21-21.78 9.89-21.74 9.57-21.7 9.02-21.59 8.47-21.48 8.22-21.45 7.96-21.41 7.3-21.25 6.64-21.09 6.47-21.04 6.3-21 5.53-20.8 4.76-20.61 4.66-20.58L4.66-20.58ZM41.57-4.15L41.57-4.15 42.75-1.93Q39.77 0.24 35.64 0.24L35.64 0.24Q31.37 0.24 28.64-2.95 25.9-6.15 25.9-12.08L25.9-12.08Q25.9-24.41 35.37-24.41L35.37-24.41Q38.69-24.41 41.79-22.95L41.79-22.95 41.79-16.65 39.3-16.41 39.3-21.29Q37.69-21.92 35.32-21.92L35.32-21.92Q33.52-21.92 32.26-21.22 31-20.51 30.31-19.14 29.61-17.77 29.32-16.05 29.03-14.33 29.03-12.04L29.03-12.04Q29.03-7.37 30.92-4.83 32.81-2.29 35.98-2.29L35.98-2.29Q38.84-2.29 41.57-4.15ZM49.95-6.79L49.95-6.79Q49.95-2.25 55.22-2.25L55.22-2.25Q56.78-2.25 58.41-2.71 60.03-3.17 61.08-3.86L61.08-3.86 61.08-11.55 59.71-11.55Q58.54-11.55 57.56-11.49 56.59-11.43 55.39-11.28 54.19-11.13 53.29-10.79 52.39-10.45 51.59-9.95 50.8-9.45 50.37-8.64 49.95-7.84 49.95-6.79ZM49.02-20.58L48.41-23Q52.73-24.41 55.93-24.41L55.93-24.41Q57.73-24.41 59.17-23.91 60.62-23.41 61.75-22.35 62.89-21.29 63.51-19.45 64.13-17.6 64.13-15.06L64.13-15.06 64.13 0 61.88 0 61.4-1.61Q60.52-0.9 58.56-0.33 56.61 0.24 54.73 0.24L54.73 0.24Q51.22 0.24 49.12-1.59 47.02-3.42 47.02-6.93L47.02-6.93Q47.02-8.06 47.37-9.02 47.72-9.99 48.59-10.89 49.46-11.79 50.79-12.44 52.12-13.09 54.19-13.46 56.27-13.84 58.93-13.84L58.93-13.84 61.08-13.84 61.08-14.62Q61.05-18.63 59.68-20.24 58.3-21.85 55.78-21.85L55.78-21.85Q55.41-21.85 54.99-21.81 54.56-21.78 54.24-21.74 53.93-21.7 53.38-21.59 52.83-21.48 52.57-21.45 52.31-21.41 51.66-21.25 51-21.09 50.83-21.04 50.65-21 49.89-20.8 49.12-20.61 49.02-20.58L49.02-20.58ZM85.73-22.53L85.73-33.15 88.86-33.15 88.86 0 86.32 0 86.08-1.22Q83.34 0.24 80.17 0.24L80.17 0.24Q77.92 0.24 76.16-0.43 74.41-1.1 73.05-2.53 71.7-3.96 70.98-6.36 70.26-8.76 70.26-12.04L70.26-12.04Q70.26-14.6 70.74-16.69 71.23-18.77 72.08-20.19 72.92-21.61 74.09-22.57 75.26-23.54 76.6-23.97 77.95-24.41 79.44-24.41L79.44-24.41Q81.1-24.41 82.54-24.02 83.98-23.63 85.73-22.53L85.73-22.53ZM85.73-3.34L85.73-3.34 85.73-19.75Q83.73-20.9 82.4-21.37 81.07-21.85 79.83-21.85L79.83-21.85Q76.85-21.85 75.11-19.37 73.38-16.89 73.38-11.99L73.38-11.99Q73.38-2.34 80.61-2.34L80.61-2.34 81.29-2.34Q83.59-2.34 85.73-3.34ZM104.68-21.85L104.68-21.85Q101.6-21.85 99.97-19.71 98.33-17.58 98.04-13.65L98.04-13.65 110.41-13.65 110.41-14.87Q110.41-18.07 108.86-19.96 107.31-21.85 104.68-21.85ZM105.09-2.34L105.09-2.34Q108.85-2.34 111.93-4.3L111.93-4.3 112.88-1.83Q111.22-0.81 109.17-0.28 107.12 0.24 105.26 0.24L105.26 0.24Q100.33 0.24 97.62-2.73 94.91-5.71 94.91-12.11L94.91-12.11Q94.91-18.24 97.55-21.33 100.19-24.41 104.65-24.41L104.65-24.41Q108.68-24.41 111-21.78 113.32-19.14 113.32-14.75L113.32-14.75Q113.32-13.75 113.12-11.45L113.12-11.45 98.04-11.45Q98.06-9.28 98.48-7.63 98.89-5.98 99.53-4.99 100.16-4 101.1-3.39 102.04-2.78 102.99-2.56 103.95-2.34 105.09-2.34ZM142.18-24.41L142.18-24.41Q145.62-24.41 147.47-22.4 149.33-20.39 149.33-16.38L149.33-16.38 149.33 0 146.2 0 146.2-16.41Q146.2-21.85 142.27-21.85L142.27-21.85Q138.27-21.85 135.75-20.26L135.75-20.26Q135.8-19.97 135.93-18.6 136.05-17.24 136.05-16.21L136.05-16.21 136.05 0 132.92 0 132.92-16.31Q132.92-19.26 132.07-20.56 131.21-21.85 129.06-21.88L129.06-21.88 129.02-21.88Q127.7-21.88 125.87-21.45 124.04-21.02 122.35-20.09L122.35-20.09 122.35 0 119.23 0 119.23-24.05 122.11-24.05 122.23-22.51Q125.67-24.41 129.48-24.41L129.48-24.41Q133.26-24.41 134.61-22.41L134.61-22.41Q138.32-24.41 142.18-24.41ZM159.41 9.52L159.41 9.52Q157.6 9.52 155.38 8.67L155.38 8.67 155.87 6.18 155.89 6.15Q158.09 6.81 159.19 6.81L159.19 6.81Q159.56 6.81 159.87 6.73 160.19 6.64 160.46 6.43 160.73 6.23 160.93 6.03 161.14 5.83 161.36 5.44 161.58 5.05 161.73 4.79 161.87 4.52 162.06 3.99 162.24 3.47 162.35 3.17 162.46 2.88 162.66 2.26 162.85 1.64 162.95 1.34L162.95 1.34 163.61-0.63 153.72-24.05 157.07-24.05 164.98-4.05 171.44-24.05 174.77-24.05 166.32 0.39Q165.61 2.44 165.16 3.6 164.71 4.76 164.06 6.07 163.41 7.37 162.8 8.02 162.19 8.67 161.33 9.09 160.46 9.52 159.41 9.52Z" fill="#9495c2" data-fill-palette-color="primary"></path></g></svg></g></svg></g></svg></g></svg></g><g><svg viewBox="0 0 190.83505620274877 135.5279294638298" height="135.5279294638298" width="190.83505620274877"><g><svg xmlns="http://www.w3.org/2000/svg" data-name="Layer 1" viewBox="16.17 25.999999997922444 67.65855928896023 48.05000000207755" x="0" y="0" height="135.5279294638298" width="190.83505620274877" class="icon-icon-0" data-fill-palette-color="accent" id="icon-0"><path class="cls-1" d="M83.18 48.87L70.8 41.72A1.3 1.3 0 0 0 68.85 42.85V57.15A1.3 1.3 0 0 0 70.8 58.28L83.18 51.13A1.3 1.3 0 0 0 83.18 48.88ZM71.45 54.87V45.1L79.93 50Z" fill="#9495c2" data-fill-palette-color="accent"></path><path class="cls-1" d="M55 26H25.43A9.27 9.27 0 0 0 16.17 35.26V72.57A1.48 1.48 0 0 0 17.65 74.05H62.79A1.48 1.48 0 0 0 64.27 72.57V35.21A9.27 9.27 0 0 0 55 26M18.77 35.21A6.67 6.67 0 0 1 25.43 28.55H38.76V71.45H18.76ZM61.67 71.45H41.36V28.55H55A6.67 6.67 0 0 1 61.66 35.21Z" fill="#9495c2" data-fill-palette-color="accent"></path></svg></g></svg></g></svg></g><defs></defs></svg><rect width="395.52" height="83.56027249823168" fill="none" stroke="none" visibility="hidden"></rect></g></svg></g></svg>